<svg width="30" height="30" viewBox="0 0 30 30" fill="none" xmlns="http://www.w3.org/2000/svg">
<path d="M25.5613 25.5617H21.1163V19.6005C21.1163 17.9405 21.0866 15.8036 18.8044 15.8036C16.4893 15.8036 16.135 17.6123 16.135 19.4796V25.5613H11.6901V12.2462H15.9572V13.2025L16.017 14.2025C16.4441 13.4723 17.0612 12.8716 17.8026 12.4644C18.544 12.0572 19.382 11.8587 20.2273 11.89C24.7326 11.89 25.5632 14.8535 25.5632 18.7087L25.5613 25.5617ZM6.6745 9.28949C5.24986 9.28972 4.09475 8.13496 4.09451 6.71032C4.09428 5.28568 5.24892 4.13057 6.67357 4.13033C8.09821 4.12998 9.25332 5.28474 9.25356 6.70938C9.25368 7.39353 8.98203 8.0497 8.49837 8.53356C8.01471 9.01742 7.35865 9.28933 6.6745 9.28949ZM8.89707 25.5618H4.44736V12.2462H8.89696L8.89707 25.5618ZM27.7773 0.00218342H2.21378C1.00558 -0.0114103 0.0147656 0.956437 0 2.16464V27.8348C0.0142968 29.0436 1.005 30.0124 2.21366 29.9997H27.7773C28.9886 30.0147 29.9831 29.0459 29.9999 27.8348V2.16264C29.9827 0.952102 28.988 -0.015629 27.7773 0.000191237" fill="white"/>
</svg>
